# Exported from ProBuilder
# http://www.procore3d.com/probuilder
# 8/31/2018 6:12:18 PM

mtllib ./DoorFloor.mtl
o DoorFloor

g DoorFloor
v 4.486 0.03232802 12.505
v 4.486 0.03232802 11.505
v 4.486 0.0379368 12.505
v 4.486 0.0379368 11.505
v 4.586 0.03232802 11.505
v 4.586 0.03232802 12.505
v 4.586 0.0379368 11.505
v 4.586 0.0379368 12.505
v 4.514354 0.03232802 12.505
v 4.486 0.03232802 12.505
v 4.514354 0.04551272 12.505
v 4.486 0.0379368 12.505
v 4.514354 0.04551272 11.505
v 4.486 0.0379368 11.505
v 4.486 0.03232802 11.505
v 4.514354 0.03232802 11.505
v 4.486 0.0379368 11.505
v 4.514354 0.04551272 11.505
v 4.514354 0.04551272 12.505
v 4.486 0.0379368 12.505
v 4.514354 0.03232802 12.505
v 4.486 0.03232802 11.505
v 4.486 0.03232802 12.505
v 4.514354 0.03232802 11.505
v 4.586 0.03232802 12.505
v 4.550177 0.03232802 12.505
v 4.586 0.0379368 12.505
v 4.550177 0.04551272 12.505
v 4.586 0.0379368 11.505
v 4.550177 0.04551272 11.505
v 4.550177 0.03232802 11.505
v 4.586 0.03232802 11.505
v 4.550177 0.03232802 11.505
v 4.514354 0.04551272 11.505
v 4.550177 0.04551272 11.505
v 4.514354 0.04551272 12.505
v 4.550177 0.04551272 12.505
v 4.550177 0.04551272 11.505
v 4.586 0.0379368 11.505
v 4.550177 0.04551272 12.505
v 4.586 0.0379368 12.505
v 4.550177 0.03232802 12.505
v 4.550177 0.03232802 11.505
v 4.586 0.03232802 12.505
v 4.586 0.03232802 11.505

vn -0.9999999 0 0
vn -0.9999999 0 0
vn -0.9999999 0 0
vn -0.9999999 0 0
vn 0.9999999 0 0
vn 0.9999999 0 0
vn 0.9999999 0 0
vn 0.9999999 0 0
vn 0 0 1
vn 0 0 1
vn 0 0 1
vn 0 0 1
vn 0 0 -1
vn 0 0 -0.9999999
vn 0 0 -1
vn 0 0 -1
vn -0.2581356 0.9661087 0
vn -0.2581356 0.9661087 0
vn -0.2581356 0.9661087 0
vn -0.2581356 0.9661087 0
vn 0 -0.9999999 0
vn 0 -0.9999999 0
vn 0 -0.9999999 0
vn 0 -0.9999999 0
vn 0 0 0.9999999
vn 0 0 1
vn 0 0 1
vn 0 0 1
vn 0 0 -0.9999999
vn 0 0 -1
vn 0 0 -0.9999999
vn 0 0 -0.9999999
vn 0 0 -1
vn 0 0.9999999 0
vn 0 0.9999999 0
vn 0 0.9999999 0
vn 0 0.9999999 0
vn 0.2069059 0.9783609 0
vn 0.2069059 0.9783609 0
vn 0.2069059 0.9783609 0
vn 0.2069059 0.9783609 0
vn 0 -0.9999999 0
vn 0 -0.9999999 0
vn 0 -0.9999999 0
vn 0 -0.9999999 0

vt 0.5128856 0.5983847
vt 0.2995067 0.5983847
vt 0.5128856 0.5995815
vt 0.2995067 0.5995815
vt 0.7262645 0.5983847
vt 0.5128856 0.5983847
vt 0.7262645 0.5995815
vt 0.5128856 0.5995815
vt 0.4975978 0.5983847
vt 0.4915477 0.5983847
vt 0.4975978 0.6011981
vt 0.4915477 0.5995815
vt 0.5281733 0.6011981
vt 0.5342234 0.5995815
vt 0.5342234 0.5983847
vt 0.5281733 0.5983847
vt 0.5342234 0.368591
vt 0.5281733 0.368591
vt 0.5281733 0.5819699
vt 0.5342234 0.5819699
vt 0.4975978 0.5819699
vt 0.4915477 0.368591
vt 0.4915477 0.5819699
vt 0.4975978 0.368591
vt 0.5128856 0.5983847
vt 0.5052417 0.5983847
vt 0.5128856 0.5995815
vt 0.5052417 0.6011981
vt 0.5128856 0.5995815
vt 0.5205294 0.6011981
vt 0.5205294 0.5983847
vt 0.5128856 0.5983847
vt 0.5205294 0.5983847
vt 0.5281733 0.368591
vt 0.5205294 0.368591
vt 0.5281733 0.5819699
vt 0.5205294 0.5819699
vt 0.5205294 0.368591
vt 0.5128856 0.368591
vt 0.5205294 0.5819699
vt 0.5128856 0.5819699
vt 0.5052417 0.5819699
vt 0.5052417 0.368591
vt 0.5128856 0.5819699
vt 0.5128856 0.368591

g DoorFloor
usemtl Wood_Floor_01
f 3/3/3 2/2/2 1/1/1
f 3/3/3 4/4/4 2/2/2
f 7/7/7 6/6/6 5/5/5
f 7/7/7 8/8/8 6/6/6
f 11/11/11 10/10/10 9/9/9
f 11/11/11 12/12/12 10/10/10
f 15/15/15 14/14/14 13/13/13
f 16/16/16 15/15/15 13/13/13
f 19/19/19 18/18/18 17/17/17
f 19/19/19 17/17/17 20/20/20
f 23/23/23 22/22/22 21/21/21
f 22/22/22 24/24/24 21/21/21
f 27/27/27 26/26/26 25/25/25
f 27/27/27 28/28/28 26/26/26
f 28/28/28 9/9/9 26/26/26
f 28/28/28 11/11/11 9/9/9
f 31/31/31 30/30/30 29/29/29
f 32/32/32 31/31/31 29/29/29
f 16/16/16 13/13/13 30/30/30
f 33/33/33 16/16/16 30/30/30
f 36/36/36 35/35/35 34/34/34
f 36/36/36 37/37/37 35/35/35
f 40/40/40 39/39/39 38/38/38
f 40/40/40 41/41/41 39/39/39
f 43/43/43 42/42/42 21/21/21
f 24/24/24 43/43/43 21/21/21
f 45/45/45 44/44/44 42/42/42
f 43/43/43 45/45/45 42/42/42

